<?xml version="1.0" encoding="iso-8859-1"?>
<!-- Uploaded to: SVG Repo, www.svgrepo.com, Generator: SVG Repo Mixer Tools -->
<svg height="800px" width="800px" version="1.1" id="Layer_1" xmlns="http://www.w3.org/2000/svg" xmlns:xlink="http://www.w3.org/1999/xlink" 
	 viewBox="0 0 512 512" xml:space="preserve">
<g>
	<g>
		<path style="fill:#A4A4A4;" d="M48.931,308.966c-2.26,0-4.52-0.865-6.241-2.586c-3.452-3.452-3.452-9.031,0-12.482L267.414,69.173
			c3.452-3.452,9.031-3.452,12.482,0c3.452,3.452,3.452,9.031,0,12.482L55.172,306.379C53.451,308.1,51.191,308.966,48.931,308.966"
			/>
		<path style="fill:#A4A4A4;" d="M503.172,459.034c-4.873,0-8.828-3.946-8.828-8.828V132.414c0-4.882,3.955-8.828,8.828-8.828
			s8.828,3.946,8.828,8.828v317.793C512,455.089,508.045,459.034,503.172,459.034"/>
		<path style="fill:#A4A4A4;" d="M450.22,512c-0.424,0-0.856-0.026-1.289-0.097L87,458.937c-4.829-0.706-8.166-5.191-7.459-10.01
			c0.706-4.829,5.199-8.21,10.019-7.45l361.931,52.966c4.82,0.706,8.157,5.191,7.451,10.01C458.297,508.849,454.528,512,450.22,512"
			/>
	</g>
	<path style="fill:#576D7E;" d="M512,132.414c0,73.128-59.286,132.414-132.414,132.414s-132.414-59.286-132.414-132.414
		S306.458,0,379.586,0S512,59.286,512,132.414"/>
	<path style="fill:#34485C;" d="M379.586,35.31c-53.628,0-97.103,43.476-97.103,97.103s43.476,97.103,97.103,97.103
		s97.103-43.476,97.103-97.103S433.214,35.31,379.586,35.31"/>
	<path style="fill:#576D7E;" d="M512,450.207C512,484.334,484.334,512,450.207,512s-61.793-27.666-61.793-61.793
		s27.666-61.793,61.793-61.793S512,416.079,512,450.207"/>
	<path style="fill:#34485C;" d="M450.207,459.034c-4.873,0-8.828-3.955-8.828-8.828c0-4.873,3.955-8.828,8.828-8.828
		c4.873,0,8.828,3.955,8.828,8.828C459.034,455.08,455.08,459.034,450.207,459.034"/>
	<g>
		<path style="fill:#576D7E;" d="M379.586,79.448c-4.873,0-8.828-3.955-8.828-8.828s3.955-8.828,8.828-8.828
			s8.828,3.955,8.828,8.828S384.459,79.448,379.586,79.448"/>
		<path style="fill:#576D7E;" d="M379.586,203.034c-4.873,0-8.828-3.955-8.828-8.828s3.955-8.828,8.828-8.828
			s8.828,3.955,8.828,8.828S384.459,203.034,379.586,203.034"/>
		<path style="fill:#576D7E;" d="M88.276,282.483C39.521,282.483,0,322.004,0,370.759s39.521,88.276,88.276,88.276
			s88.276-39.521,88.276-88.276S137.031,282.483,88.276,282.483"/>
		<path style="fill:#576D7E;" d="M432.552,132.414c0-4.873,3.955-8.828,8.828-8.828c4.873,0,8.828,3.955,8.828,8.828
			c0,4.873-3.955,8.828-8.828,8.828C436.507,141.241,432.552,137.287,432.552,132.414"/>
		<path style="fill:#576D7E;" d="M308.966,132.414c0-4.873,3.955-8.828,8.828-8.828c4.873,0,8.828,3.955,8.828,8.828
			c0,4.873-3.955,8.828-8.828,8.828C312.92,141.241,308.966,137.287,308.966,132.414"/>
		<path style="fill:#576D7E;" d="M344.276,88.276c0,4.873-3.955,8.828-8.828,8.828c-4.873,0-8.828-3.955-8.828-8.828
			c0-4.873,3.955-8.828,8.828-8.828C340.321,79.448,344.276,83.403,344.276,88.276"/>
		<path style="fill:#576D7E;" d="M432.552,176.552c0,4.873-3.955,8.828-8.828,8.828c-4.873,0-8.828-3.955-8.828-8.828
			c0-4.873,3.955-8.828,8.828-8.828C428.597,167.724,432.552,171.679,432.552,176.552"/>
		<path style="fill:#576D7E;" d="M414.897,88.276c0-4.873,3.955-8.828,8.828-8.828c4.873,0,8.828,3.955,8.828,8.828
			c0,4.873-3.955,8.828-8.828,8.828C418.851,97.103,414.897,93.149,414.897,88.276"/>
		<path style="fill:#576D7E;" d="M335.448,185.379c-4.873,0-8.828-3.955-8.828-8.828c0-4.873,3.955-8.828,8.828-8.828
			c4.873,0,8.828,3.955,8.828,8.828C344.276,181.425,340.321,185.379,335.448,185.379"/>
		<path style="fill:#576D7E;" d="M379.586,158.897c-14.627,0-26.483-11.855-26.483-26.483s11.855-26.483,26.483-26.483
			s26.483,11.855,26.483,26.483S394.214,158.897,379.586,158.897"/>
	</g>
	<path style="fill:#34485C;" d="M88.276,406.069c-19.5,0-35.31-15.81-35.31-35.31c0-19.5,15.81-35.31,35.31-35.31
		s35.31,15.81,35.31,35.31C123.586,390.259,107.776,406.069,88.276,406.069"/>
</g>
</svg>